<?xml version="1.0" standalone="no"?>
<!DOCTYPE svg PUBLIC "-//W3C//DTD SVG 20010904//EN"
 "http://www.w3.org/TR/2001/REC-SVG-20010904/DTD/svg10.dtd">
<svg version="1.0" xmlns="http://www.w3.org/2000/svg"
 width="16.000000pt" height="16.000000pt" viewBox="0 0 16.000000 16.000000"
 preserveAspectRatio="xMidYMid meet">
<metadata>
Created by potrace 1.11, written by Peter Selinger 2001-2013
</metadata>
<g transform="translate(0.000000,16.000000) scale(0.005333,-0.005333)"
fill="#000000" stroke="none">
<path d="M1290 2984 c-725 -105 -1270 -718 -1285 -1444 -5 -222 25 -389 104
-590 176 -450 549 -777 1026 -900 137 -35 212 -45 355 -45 262 0 444 42 675
156 646 319 968 1044 775 1746 -74 269 -244 537 -458 723 -192 166 -459 296
-712 345 -113 22 -358 26 -480 9z m354 -109 c313 -31 602 -169 832 -399 190
-190 312 -411 373 -678 25 -109 32 -169 32 -302 0 -473 -240 -908 -647 -1168
-130 -83 -340 -165 -484 -188 -41 -6 -86 -14 -100 -16 -31 -6 -266 -6 -300 0
-14 2 -59 10 -100 16 -161 26 -383 117 -534 220 -195 131 -389 366 -482 583
-235 547 -110 1157 319 1563 293 277 684 409 1091 369z"/>
<path d="M1550 2291 c-5 -10 -88 -206 -185 -436 -96 -229 -178 -423 -183 -430
-5 -10 -96 133 -274 428 -181 302 -272 443 -284 445 -11 1 -34 -10 -52 -25
l-33 -28 291 -485 292 -484 -53 -126 c-29 -69 -79 -187 -111 -263 -32 -75 -58
-141 -58 -147 0 -11 64 -40 89 -40 15 0 45 68 328 745 18 44 102 244 187 445
115 274 151 368 142 377 -6 6 -28 18 -48 27 -35 14 -39 14 -48 -3z"/>
<path d="M1777 2248 c-8 -18 -73 -172 -145 -343 -367 -873 -482 -1150 -482
-1162 0 -16 64 -46 86 -41 8 2 36 53 62 113 l47 110 456 3 456 2 48 -115 c52
-127 60 -133 122 -95 l32 19 -47 113 c-243 584 -602 1423 -610 1426 -6 2 -17
-12 -25 -30z m108 -435 c43 -104 84 -201 91 -218 34 -76 225 -531 227 -540 2
-12 -790 -18 -798 -6 -5 9 386 951 396 951 3 0 41 -84 84 -187z"/>
</g>
</svg>
