<svg version="1" xmlns="http://www.w3.org/2000/svg" width="21.333" height="21.333" viewBox="0 0 16.000000 16.000000"><path d="M6.88.086C3.013.646.107 3.916.027 7.787 0 8.971.16 9.862.58 10.934c.939 2.4 2.928 4.143 5.472 4.8.73.186 1.13.24 1.893.24 1.397 0 2.368-.225 3.6-.833 3.445-1.7 5.162-5.567 4.133-9.311-.395-1.435-1.301-2.864-2.442-3.856C12.213 1.09 10.789.396 9.439.134 8.837.017 7.53-.004 6.88.086zm1.887.582c1.67.165 3.21.9 4.438 2.127 1.013 1.014 1.663 2.192 1.989 3.616.133.582.17.902.17 1.61 0 2.523-1.28 4.843-3.45 6.23-.693.442-1.813.88-2.581 1.002-.219.032-.459.075-.534.086-.165.032-1.418.032-1.6 0-.074-.011-.314-.054-.533-.086-.858-.138-2.042-.624-2.848-1.173-1.04-.699-2.074-1.952-2.57-3.109C-.005 8.054.66 4.801 2.949 2.636 4.512 1.158 6.597.454 8.767.668z"/><path d="M8.266 3.782c-.027.053-.47 1.099-.986 2.325-.512 1.222-.95 2.256-.976 2.293-.027.054-.512-.709-1.462-2.282-.965-1.61-1.45-2.363-1.514-2.373-.059-.006-.182.053-.278.133l-.176.15 1.552 2.586 1.558 2.581-.283.672-.592 1.403c-.17.4-.31.752-.31.784 0 .058.342.213.475.213.08 0 .24-.363 1.75-3.973.096-.235.544-1.301.997-2.373.613-1.462.805-1.963.757-2.01a1.23 1.23 0 0 0-.256-.145c-.187-.075-.208-.075-.256.016zM9.477 4.011c-.043.096-.39.918-.774 1.83-1.957 4.655-2.57 6.133-2.57 6.197 0 .085.341.245.459.218.042-.01.192-.282.33-.602l.25-.587 2.433-.016 2.432-.01.256.613c.277.677.32.709.65.506l.17-.101-.25-.603c-1.296-3.114-3.21-7.589-3.253-7.605-.032-.01-.09.064-.133.16zm.576 2.32c.229.555.448 1.072.485 1.163.181.405 1.2 2.832 1.21 2.88.011.064-4.212.096-4.255.032-.027-.048 2.058-5.072 2.112-5.072.016 0 .218.448.448.997z"/></svg>